HIERARCHY
ROOT mixamorig:Hips
{
	OFFSET -0.000008 104.274872 1.554316
	CHANNELS 6 Xposition Yposition Zposition Xrotation Yrotation Zrotation
	JOINT mixamorig:Spine
	{
		OFFSET -0.000005 10.181595 0.131519
		CHANNELS 6 Xposition Yposition Zposition Xrotation Yrotation Zrotation
		JOINT mixamorig:Spine1
		{
			OFFSET -0.000000 9.893959 -1.470707
			CHANNELS 6 Xposition Yposition Zposition Xrotation Yrotation Zrotation
			JOINT mixamorig:Spine2
			{
				OFFSET -0.000000 9.220757 -1.370641
				CHANNELS 6 Xposition Yposition Zposition Xrotation Yrotation Zrotation
				JOINT mixamorig:Neck
				{
					OFFSET 0.000001 16.740417 -2.049036
					CHANNELS 6 Xposition Yposition Zposition Xrotation Yrotation Zrotation
					JOINT mixamorig:Head
					{
						OFFSET 0.000000 9.617874 1.685006
						CHANNELS 6 Xposition Yposition Zposition Xrotation Yrotation Zrotation
						JOINT mixamorig:HeadTop_End
						{
							OFFSET 0.000002 22.037354 7.501101
							CHANNELS 6 Xposition Yposition Zposition Xrotation Yrotation Zrotation
							End Site
							{
								OFFSET 0.000168 2310.654297 -282.823242
							}
						}
					}
				}
				JOINT mixamorig:RightShoulder
				{
					OFFSET -4.569970 11.014908 -2.160885
					CHANNELS 6 Xposition Yposition Zposition Xrotation Yrotation Zrotation
					JOINT mixamorig:RightArm
					{
						OFFSET -10.592851 -0.524811 -2.232101
						CHANNELS 6 Xposition Yposition Zposition Xrotation Yrotation Zrotation
						JOINT mixamorig:RightForeArm
						{
							OFFSET -27.841511 0.000031 -0.000004
							CHANNELS 6 Xposition Yposition Zposition Xrotation Yrotation Zrotation
							JOINT mixamorig:RightHand
							{
								OFFSET -28.328831 -0.000015 0.000015
								CHANNELS 6 Xposition Yposition Zposition Xrotation Yrotation Zrotation
								JOINT mixamorig:RightHandThumb1
								{
									OFFSET -2.464806 -1.573990 2.681852
									CHANNELS 6 Xposition Yposition Zposition Xrotation Yrotation Zrotation
									JOINT mixamorig:RightHandThumb2
									{
										OFFSET -3.215179 -1.872803 1.924282
										CHANNELS 6 Xposition Yposition Zposition Xrotation Yrotation Zrotation
										JOINT mixamorig:RightHandThumb3
										{
											OFFSET -2.654831 -1.527969 1.512609
											CHANNELS 6 Xposition Yposition Zposition Xrotation Yrotation Zrotation
											JOINT mixamorig:RightHandThumb4
											{
												OFFSET -2.018814 -1.152008 1.108052
												CHANNELS 6 Xposition Yposition Zposition Xrotation Yrotation Zrotation
												End Site
												{
													OFFSET -188.809540 -114.533607 132.431396
												}
											}
										}
									}
								}
								JOINT mixamorig:RightHandIndex1
								{
									OFFSET -9.108284 -0.517868 2.259835
									CHANNELS 6 Xposition Yposition Zposition Xrotation Yrotation Zrotation
									JOINT mixamorig:RightHandIndex2
									{
										OFFSET -3.699989 0.000000 0.001215
										CHANNELS 6 Xposition Yposition Zposition Xrotation Yrotation Zrotation
										JOINT mixamorig:RightHandIndex3
										{
											OFFSET -2.850006 0.000031 -0.000522
											CHANNELS 6 Xposition Yposition Zposition Xrotation Yrotation Zrotation
											JOINT mixamorig:RightHandIndex4
											{
												OFFSET -2.772186 -0.000015 -0.000020
												CHANNELS 6 Xposition Yposition Zposition Xrotation Yrotation Zrotation
												End Site
												{
													OFFSET -277.218445 0.000000 -0.050231
												}
											}
										}
									}
								}
								JOINT mixamorig:RightHandMiddle1
								{
									OFFSET -9.532516 -0.000031 -0.000023
									CHANNELS 6 Xposition Yposition Zposition Xrotation Yrotation Zrotation
									JOINT mixamorig:RightHandMiddle2
									{
										OFFSET -3.700005 -0.000015 0.003713
										CHANNELS 6 Xposition Yposition Zposition Xrotation Yrotation Zrotation
										JOINT mixamorig:RightHandMiddle3
										{
											OFFSET -2.949974 0.000015 -0.002054
											CHANNELS 6 Xposition Yposition Zposition Xrotation Yrotation Zrotation
											JOINT mixamorig:RightHandMiddle4
											{
												OFFSET -2.946640 0.000000 -0.000156
												CHANNELS 6 Xposition Yposition Zposition Xrotation Yrotation Zrotation
												End Site
												{
													OFFSET -294.664337 0.000000 -0.113670
												}
											}
										}
									}
								}
								JOINT mixamorig:RightHandRing1
								{
									OFFSET -9.103600 -0.043076 -1.865134
									CHANNELS 6 Xposition Yposition Zposition Xrotation Yrotation Zrotation
									JOINT mixamorig:RightHandRing2
									{
										OFFSET -3.379288 0.000000 -0.001055
										CHANNELS 6 Xposition Yposition Zposition Xrotation Yrotation Zrotation
										JOINT mixamorig:RightHandRing3
										{
											OFFSET -2.889687 -0.000015 0.000379
											CHANNELS 6 Xposition Yposition Zposition Xrotation Yrotation Zrotation
											JOINT mixamorig:RightHandRing4
											{
												OFFSET -2.638809 -0.000015 0.000941
												CHANNELS 6 Xposition Yposition Zposition Xrotation Yrotation Zrotation
												End Site
												{
													OFFSET -263.880371 0.000000 0.516020
												}
											}
										}
									}
								}
								JOINT mixamorig:RightHandPinky1
								{
									OFFSET -8.076683 -0.486710 -3.806280
									CHANNELS 6 Xposition Yposition Zposition Xrotation Yrotation Zrotation
									JOINT mixamorig:RightHandPinky2
									{
										OFFSET -3.600014 -0.000015 -0.003747
										CHANNELS 6 Xposition Yposition Zposition Xrotation Yrotation Zrotation
										JOINT mixamorig:RightHandPinky3
										{
											OFFSET -2.099983 0.000000 -0.005739
											CHANNELS 6 Xposition Yposition Zposition Xrotation Yrotation Zrotation
											JOINT mixamorig:RightHandPinky4
											{
												OFFSET -2.115768 -0.000031 -0.003680
												CHANNELS 6 Xposition Yposition Zposition Xrotation Yrotation Zrotation
												End Site
												{
													OFFSET -211.577087 0.000000 -0.350686
												}
											}
										}
									}
								}
							}
						}
					}
				}
				JOINT mixamorig:LeftShoulder
				{
					OFFSET 4.570447 11.014725 -2.160855
					CHANNELS 6 Xposition Yposition Zposition Xrotation Yrotation Zrotation
					JOINT mixamorig:LeftArm
					{
						OFFSET 10.592371 -0.524597 -2.232119
						CHANNELS 6 Xposition Yposition Zposition Xrotation Yrotation Zrotation
						JOINT mixamorig:LeftForeArm
						{
							OFFSET 27.841532 -0.000031 0.000026
							CHANNELS 6 Xposition Yposition Zposition Xrotation Yrotation Zrotation
							JOINT mixamorig:LeftHand
							{
								OFFSET 28.328846 -0.000061 0.000022
								CHANNELS 6 Xposition Yposition Zposition Xrotation Yrotation Zrotation
								JOINT mixamorig:LeftHandThumb1
								{
									OFFSET 2.466141 -1.576172 2.681732
									CHANNELS 6 Xposition Yposition Zposition Xrotation Yrotation Zrotation
									JOINT mixamorig:LeftHandThumb2
									{
										OFFSET 3.217812 -1.872070 1.916482
										CHANNELS 6 Xposition Yposition Zposition Xrotation Yrotation Zrotation
										JOINT mixamorig:LeftHandThumb3
										{
											OFFSET 2.656029 -1.528778 1.514513
											CHANNELS 6 Xposition Yposition Zposition Xrotation Yrotation Zrotation
											JOINT mixamorig:LeftHandThumb4
											{
												OFFSET 2.020889 -1.154053 1.115139
												CHANNELS 6 Xposition Yposition Zposition Xrotation Yrotation Zrotation
												End Site
												{
													OFFSET 190.885437 -115.081749 130.048782
												}
											}
										}
									}
								}
								JOINT mixamorig:LeftHandIndex1
								{
									OFFSET 9.109314 -0.518021 2.259871
									CHANNELS 6 Xposition Yposition Zposition Xrotation Yrotation Zrotation
									JOINT mixamorig:LeftHandIndex2
									{
										OFFSET 3.699989 0.000000 -0.000322
										CHANNELS 6 Xposition Yposition Zposition Xrotation Yrotation Zrotation
										JOINT mixamorig:LeftHandIndex3
										{
											OFFSET 2.850006 0.000000 0.000352
											CHANNELS 6 Xposition Yposition Zposition Xrotation Yrotation Zrotation
											JOINT mixamorig:LeftHandIndex4
											{
												OFFSET 2.774864 -0.000031 -0.000027
												CHANNELS 6 Xposition Yposition Zposition Xrotation Yrotation Zrotation
												End Site
												{
													OFFSET 277.486267 0.000000 -0.009857
												}
											}
										}
									}
								}
								JOINT mixamorig:LeftHandMiddle1
								{
									OFFSET 9.533394 0.000061 0.000044
									CHANNELS 6 Xposition Yposition Zposition Xrotation Yrotation Zrotation
									JOINT mixamorig:LeftHandMiddle2
									{
										OFFSET 3.699989 -0.000015 -0.000231
										CHANNELS 6 Xposition Yposition Zposition Xrotation Yrotation Zrotation
										JOINT mixamorig:LeftHandMiddle3
										{
											OFFSET 2.949997 -0.000015 -0.000059
											CHANNELS 6 Xposition Yposition Zposition Xrotation Yrotation Zrotation
											JOINT mixamorig:LeftHandMiddle4
											{
												OFFSET 2.952896 0.000031 0.000063
												CHANNELS 6 Xposition Yposition Zposition Xrotation Yrotation Zrotation
												End Site
												{
													OFFSET 295.289337 0.000000 0.022810
												}
											}
										}
									}
								}
								JOINT mixamorig:LeftHandRing1
								{
									OFFSET 9.104523 -0.042999 -1.865074
									CHANNELS 6 Xposition Yposition Zposition Xrotation Yrotation Zrotation
									JOINT mixamorig:LeftHandRing2
									{
										OFFSET 3.150009 -0.000031 0.000043
										CHANNELS 6 Xposition Yposition Zposition Xrotation Yrotation Zrotation
										JOINT mixamorig:LeftHandRing3
										{
											OFFSET 2.949982 -0.000015 0.000040
											CHANNELS 6 Xposition Yposition Zposition Xrotation Yrotation Zrotation
											JOINT mixamorig:LeftHandRing4
											{
												OFFSET 2.644348 0.000000 0.000057
												CHANNELS 6 Xposition Yposition Zposition Xrotation Yrotation Zrotation
												End Site
												{
													OFFSET 264.434631 0.000000 0.012105
												}
											}
										}
									}
								}
								JOINT mixamorig:LeftHandPinky1
								{
									OFFSET 8.077789 -0.486847 -3.806259
									CHANNELS 6 Xposition Yposition Zposition Xrotation Yrotation Zrotation
									JOINT mixamorig:LeftHandPinky2
									{
										OFFSET 3.599953 0.000031 0.014727
										CHANNELS 6 Xposition Yposition Zposition Xrotation Yrotation Zrotation
										JOINT mixamorig:LeftHandPinky3
										{
											OFFSET 2.100021 0.000015 0.007705
											CHANNELS 6 Xposition Yposition Zposition Xrotation Yrotation Zrotation
											JOINT mixamorig:LeftHandPinky4
											{
												OFFSET 2.125504 0.000031 0.007517
												CHANNELS 6 Xposition Yposition Zposition Xrotation Yrotation Zrotation
												End Site
												{
													OFFSET 212.550781 0.000000 0.625752
												}
											}
										}
									}
								}
							}
						}
					}
				}
			}
		}
	}
	JOINT mixamorig:RightUpLeg
	{
		OFFSET -8.207787 -6.751648 -1.599560
		CHANNELS 6 Xposition Yposition Zposition Xrotation Yrotation Zrotation
		JOINT mixamorig:RightLeg
		{
			OFFSET -0.000002 -44.370117 0.345942
			CHANNELS 6 Xposition Yposition Zposition Xrotation Yrotation Zrotation
			JOINT mixamorig:RightFoot
			{
				OFFSET 0.000003 -44.423679 -3.043532
				CHANNELS 6 Xposition Yposition Zposition Xrotation Yrotation Zrotation
				JOINT mixamorig:RightToeBase
				{
					OFFSET -0.000002 -8.728671 10.710558
					CHANNELS 6 Xposition Yposition Zposition Xrotation Yrotation Zrotation
					JOINT mixamorig:RightToe_End
					{
						OFFSET -0.000001 -0.000679 9.278119
						CHANNELS 6 Xposition Yposition Zposition Xrotation Yrotation Zrotation
						End Site
						{
							OFFSET 0.000000 -0.067690 927.812134
						}
					}
				}
			}
		}
	}
	JOINT mixamorig:LeftUpLeg
	{
		OFFSET 8.207793 -6.751686 -1.599556
		CHANNELS 6 Xposition Yposition Zposition Xrotation Yrotation Zrotation
		JOINT mixamorig:LeftLeg
		{
			OFFSET -0.000004 -44.370014 0.346954
			CHANNELS 6 Xposition Yposition Zposition Xrotation Yrotation Zrotation
			JOINT mixamorig:LeftFoot
			{
				OFFSET -0.000001 -44.423672 -3.044401
				CHANNELS 6 Xposition Yposition Zposition Xrotation Yrotation Zrotation
				JOINT mixamorig:LeftToeBase
				{
					OFFSET -0.000002 -8.728669 10.710558
					CHANNELS 6 Xposition Yposition Zposition Xrotation Yrotation Zrotation
					JOINT mixamorig:LeftToe_End
					{
						OFFSET -0.000003 -0.000679 9.278133
						CHANNELS 6 Xposition Yposition Zposition Xrotation Yrotation Zrotation
						End Site
						{
							OFFSET 0.000000 -0.068021 927.813477
						}
					}
				}
			}
		}
	}
}
MOTION
Frames: 3
Frame Time: 0.033333
0.000006 104.270477 1.554256 0.000010 0.000003 -0.000113 -0.000005 10.181587 0.131522 0.000001 -0.000003 0.000084 -0.000000 9.893967 -1.470711 0.000001 0.000000 -0.000000 -0.000000 9.220802 -1.370642 0.000000 -0.000000 -0.000000 0.000001 16.740433 -2.049030 0.000000 -0.000000 -0.000000 0.000000 9.617859 1.685014 0.000000 0.000000 0.000000 0.000002 22.037384 7.501101 0.000000 -0.000000 0.000000 -4.569968 11.014880 -2.160881 0.000008 0.000001 -0.000038 -10.592846 -0.524806 -2.231818 76.185569 45.389469 -36.301055 -27.841503 -0.000001 0.000554 -42.223017 104.815810 53.267696 -28.328829 0.000007 0.000028 -0.000321 -0.000046 0.000010 -2.464410 -1.573826 2.682326 -44.958504 -159.521049 -3.179959 -3.215275 -1.872555 1.924648 152.997986 32.021850 7.929334 -2.654958 -1.527861 1.513090 144.279973 27.305409 -39.278253 -2.018827 -1.152010 1.108061 -0.000003 -0.000003 0.000002 -9.108377 -0.517551 2.260154 105.451837 14.589839 -19.155476 -3.700045 0.000314 0.001526 103.599865 12.103055 -15.315832 -2.850093 0.000368 -0.000228 103.167631 10.089766 -12.702261 -2.772169 0.000001 -0.000018 -0.000001 -0.000002 -0.000001 -9.532593 0.000269 0.000233 94.649988 15.158666 -16.577566 -3.700047 0.000343 0.003971 98.593029 9.674822 -11.130440 -2.950052 0.000348 -0.001774 100.726603 10.101425 -12.171807 -2.946626 0.000001 -0.000157 -0.000000 -0.000003 0.000001 -9.103710 -0.042751 -1.864885 92.911309 17.532993 -18.384943 -3.379314 0.000323 -0.000788 98.285712 5.904067 -6.843202 -2.889749 0.000351 0.000685 104.681269 5.539572 -7.232021 -2.638803 -0.000017 0.000940 0.000001 0.000001 -0.000002 -8.076771 -0.486400 -3.806006 87.192699 20.829874 -19.705343 -3.600011 0.000283 -0.003507 91.836087 6.606853 -6.464029 -2.099997 0.000328 -0.005468 95.286050 3.226209 -3.306204 -2.115763 -0.000067 -0.003678 -0.000001 -0.000000 -0.000005 4.570446 11.014691 -2.160851 -0.000018 0.000010 -0.000021 10.592525 -0.524533 -2.232394 71.420829 -64.995049 49.207480 27.841728 -0.000059 -0.000123 88.423219 -101.346408 99.796331 28.328831 0.000001 0.000033 0.000017 -0.000088 0.000000 2.466201 -1.576102 2.681898 73.959590 143.634685 -134.095670 3.217823 -1.871969 1.916584 285.123242 23.593908 25.391889 2.656062 -1.528741 1.514650 316.724396 -14.603392 -347.953851 2.020890 -1.154071 1.115141 0.000002 0.000000 0.000006 9.109291 -0.517931 2.260101 289.955054 -17.020058 -11.967694 3.699969 0.000091 -0.000104 -68.361355 -18.073922 347.664880 2.849998 0.000116 0.000574 -66.849595 -16.865371 348.823853 2.774884 -0.000050 -0.000024 -0.000002 0.000000 -0.000002 9.533343 0.000124 0.000262 289.740586 -40.337383 331.020228 3.700102 0.000261 -0.000283 135.003470 -12.256081 29.058336 2.949976 0.000317 -0.000195 119.693342 4.089637 -7.030169 2.952860 -0.000018 0.000057 0.000000 0.000002 0.000002 9.104441 -0.042919 -1.864859 281.019910 -44.606511 322.647427 3.149873 0.000439 -0.000047 143.154823 10.040607 -29.545073 2.949800 0.000369 -0.000143 124.847812 23.861886 -44.054023 2.644323 0.000048 0.000057 0.000002 -0.000001 0.000001 8.077715 -0.486716 -3.806004 274.536831 -26.631037 335.139515 3.599680 0.000388 0.014654 156.371375 16.809140 -70.135757 2.099757 0.000346 0.007588 138.602625 23.891739 -58.231918 2.125500 -0.000026 0.007517 0.000002 -0.000006 -0.000001 -8.207786 -6.751667 -1.599560 -0.077001 -0.000003 0.000080 -0.000002 -44.370110 0.345938 0.153719 -0.000000 -0.000000 0.000000 -44.423679 -3.043532 -0.076700 0.000000 -0.000002 -0.000006 -8.728667 10.710559 -0.000009 -0.000000 -0.000000 -0.000001 -0.000679 9.278123 0.000000 -0.000000 -0.000000 8.207792 -6.751710 -1.599556 -0.074518 -0.000003 0.000081 -0.000002 -44.370014 0.346960 0.148822 0.000002 0.000000 -0.000001 -44.423664 -3.044403 -0.074314 0.000000 -0.000002 -0.000004 -8.728671 10.710558 0.000007 -0.000000 -0.000000 0.000000 -0.000680 9.278137 -0.000000 0.000000 -0.000001 
0.000006 104.270477 1.554256 0.000010 0.000003 -0.000113 -0.000005 10.181587 0.131522 0.000001 -0.000003 0.000084 -0.000000 9.893967 -1.470711 0.000001 0.000000 -0.000000 -0.000000 9.220802 -1.370642 0.000000 -0.000000 -0.000000 0.000001 16.740433 -2.049030 0.000000 -0.000000 -0.000000 0.000000 9.617859 1.685014 0.000000 0.000000 0.000000 0.000002 22.037384 7.501101 0.000000 -0.000000 0.000000 -4.569968 11.014880 -2.160881 0.000008 0.000001 -0.000038 -10.592849 -0.524805 -2.231827 76.583961 43.867477 -35.273778 -27.841499 0.000002 0.000561 -41.233077 105.150148 52.358506 -28.328835 0.000006 0.000019 -0.000325 -0.000046 0.000006 -2.464391 -1.573810 2.682341 -44.717211 -159.267362 -2.653904 -3.215268 -1.872577 1.924632 153.168508 31.870520 6.759731 -2.654955 -1.527881 1.513079 144.030371 27.330848 -39.673656 -2.018823 -1.152016 1.108058 -0.000002 -0.000006 0.000001 -9.108358 -0.517555 2.260146 105.636177 14.806639 -19.500897 -3.700069 0.000314 0.001551 103.516216 12.316407 -15.561900 -2.850067 0.000371 -0.000217 102.734378 10.241626 -12.794049 -2.772161 -0.000001 -0.000019 0.000000 -0.000001 -0.000001 -9.532577 0.000278 0.000250 94.606808 15.234991 -16.647794 -3.700057 0.000322 0.003992 98.203012 10.050489 -11.486772 -2.950044 0.000344 -0.001771 100.522933 10.449301 -12.545103 -2.946634 0.000002 -0.000156 0.000001 0.000002 0.000000 -9.103692 -0.042749 -1.864859 92.901843 17.749836 -18.609397 -3.379312 0.000345 -0.000787 98.321154 6.443164 -7.470686 -2.889747 0.000354 0.000679 105.084496 5.890732 -7.742584 -2.638801 -0.000002 0.000940 -0.000000 0.000002 -0.000000 -8.076753 -0.486393 -3.805996 87.537835 21.057562 -20.040627 -3.600007 0.000293 -0.003510 91.138636 7.306763 -7.096420 -2.100000 0.000321 -0.005477 95.051569 3.798968 -3.916130 -2.115764 -0.000069 -0.003679 0.000000 0.000000 -0.000005 4.570446 11.014691 -2.160851 -0.000018 0.000010 -0.000021 10.592524 -0.524519 -2.232398 70.161411 -62.594340 46.241484 27.841721 -0.000080 -0.000116 90.622328 -101.361503 101.971050 28.328823 -0.000017 0.000030 0.000017 -0.000088 -0.000000 2.466195 -1.576117 2.681889 84.126197 148.105972 -142.065134 3.217852 -1.871931 1.916559 292.940994 13.495553 20.203283 2.656057 -1.528728 1.514670 316.873567 -17.992588 -347.918662 2.020894 -1.154065 1.115136 0.000000 0.000006 0.000007 9.109289 -0.517921 2.260092 288.479269 -16.030418 -11.576099 3.699975 0.000060 -0.000089 -66.142254 -15.797005 349.669595 2.849992 0.000101 0.000559 -63.878087 -12.918972 351.926016 2.774879 -0.000036 -0.000044 -0.000003 -0.000002 0.000000 9.533340 0.000107 0.000248 298.582758 -41.343654 334.736861 3.700107 0.000239 -0.000311 127.487093 -16.301563 32.375643 2.949971 0.000316 -0.000199 122.152592 4.265696 -7.707611 2.952869 -0.000035 0.000065 -0.000001 0.000004 -0.000005 9.104434 -0.042966 -1.864883 286.590885 -51.452116 320.483350 3.149965 0.000406 -0.000057 137.867969 4.770220 -12.339942 2.949814 0.000380 -0.000119 129.076806 19.882790 -40.416063 2.644327 0.000018 0.000061 -0.000001 -0.000000 -0.000001 8.077707 -0.486768 -3.806028 283.463069 -30.598243 335.516487 3.599653 0.000337 0.014715 164.326975 14.007423 -83.364884 2.099715 0.000345 0.007643 152.309544 20.599123 -72.604549 2.125511 -0.000018 0.007517 0.000001 -0.000001 -0.000003 -8.207786 -6.751667 -1.599560 -0.077001 -0.000003 0.000080 -0.000002 -44.370110 0.345938 0.153719 -0.000000 -0.000000 0.000000 -44.423679 -3.043532 -0.076700 0.000000 -0.000002 -0.000006 -8.728667 10.710559 -0.000009 -0.000000 -0.000000 -0.000001 -0.000679 9.278123 0.000000 -0.000000 -0.000000 8.207792 -6.751710 -1.599556 -0.074518 -0.000003 0.000081 -0.000002 -44.370014 0.346960 0.148822 0.000002 0.000000 -0.000001 -44.423664 -3.044403 -0.074314 0.000000 -0.000002 -0.000004 -8.728671 10.710558 0.000007 -0.000000 -0.000000 0.000000 -0.000680 9.278137 -0.000000 0.000000 -0.000001 
0.000006 104.270477 1.554256 0.000010 0.000003 -0.000113 -0.000005 10.181587 0.131522 0.000001 -0.000003 0.000084 -0.000000 9.893967 -1.470711 0.000001 0.000000 -0.000000 -0.000000 9.220802 -1.370642 0.000000 -0.000000 -0.000000 0.000001 16.740433 -2.049030 0.000000 -0.000000 -0.000000 0.000000 9.617859 1.685014 0.000000 0.000000 0.000000 0.000002 22.037384 7.501101 0.000000 -0.000000 0.000000 -4.569968 11.014880 -2.160881 0.000008 0.000001 -0.000038 -10.592844 -0.524820 -2.231816 76.800177 45.873876 -37.083607 -27.841509 0.000007 0.000561 -40.624804 104.050275 50.741352 -28.328836 0.000009 0.000026 -0.000321 -0.000044 0.000004 -2.464409 -1.573784 2.682324 -46.318067 -161.742636 -6.136990 -3.215276 -1.872587 1.924651 153.739854 31.480933 3.722699 -2.654955 -1.527879 1.513090 144.130297 27.257878 -40.378528 -2.018822 -1.152013 1.108054 -0.000003 -0.000003 0.000000 -9.108368 -0.517540 2.260144 105.430609 15.139514 -19.861850 -3.700062 0.000318 0.001554 104.190438 12.567983 -16.069854 -2.850071 0.000359 -0.000219 102.530087 10.444320 -12.999322 -2.772176 -0.000001 -0.000016 0.000000 0.000003 -0.000001 -9.532585 0.000290 0.000246 95.401282 16.665069 -18.445307 -3.700061 0.000329 0.003994 98.927394 11.437186 -13.248123 -2.950067 0.000338 -0.001791 99.716090 11.042089 -13.068688 -2.946609 0.000014 -0.000159 -0.000002 -0.000000 -0.000000 -9.103700 -0.042776 -1.864866 93.797390 19.413476 -20.668311 -3.379325 0.000316 -0.000788 98.102069 8.259975 -9.533354 -2.889742 0.000367 0.000677 103.803036 6.632523 -8.511217 -2.638807 -0.000017 0.000940 -0.000001 -0.000000 -0.000001 -8.076767 -0.486412 -3.806021 86.826266 23.091360 -21.727161 -3.600048 0.000290 -0.003501 90.990237 9.386513 -9.183950 -2.100035 0.000328 -0.005488 94.291055 4.828951 -4.970732 -2.115757 -0.000044 -0.003674 0.000001 -0.000003 -0.000001 4.570446 11.014691 -2.160851 -0.000018 0.000010 -0.000021 10.592524 -0.524532 -2.232398 69.644509 -63.164415 46.306596 27.841726 -0.000040 -0.000126 91.351581 -100.767120 102.092067 28.328829 -0.000014 0.000024 0.000020 -0.000088 0.000001 2.466192 -1.576121 2.681883 83.349106 150.149141 -142.377178 3.217838 -1.871945 1.916579 291.675442 14.790641 20.898594 2.656059 -1.528727 1.514651 316.351631 -15.594683 -347.891505 2.020884 -1.154057 1.115147 0.000000 0.000004 0.000002 9.109286 -0.517904 2.260097 287.908019 -16.022732 -11.691745 3.699964 0.000066 -0.000097 -67.410777 -16.398021 349.013897 2.849977 0.000103 0.000560 -64.061232 -13.599356 351.468202 2.774892 -0.000038 -0.000020 -0.000003 -0.000004 -0.000002 9.533340 0.000107 0.000250 301.123342 -41.939253 335.590662 3.700085 0.000261 -0.000318 129.414736 -13.140520 27.390775 2.949980 0.000334 -0.000180 124.932711 5.081307 -9.725892 2.952874 -0.000046 0.000069 -0.000000 -0.000002 -0.000000 9.104435 -0.042965 -1.864870 289.110433 -49.767873 323.455520 3.149927 0.000423 -0.000060 138.830411 7.558181 -19.946478 2.949788 0.000391 -0.000121 130.552564 22.106034 -45.975888 2.644316 0.000033 0.000052 -0.000001 -0.000001 0.000001 8.077723 -0.486773 -3.806021 287.377996 -29.997532 337.600732 3.599672 0.000357 0.014680 160.342939 15.264505 -75.148487 2.099710 0.000348 0.007619 149.379721 21.679917 -69.728780 2.125504 0.000001 0.007516 0.000000 -0.000003 -0.000003 -8.207786 -6.751667 -1.599560 -0.077001 -0.000003 0.000080 -0.000002 -44.370110 0.345938 0.153719 -0.000000 -0.000000 0.000000 -44.423679 -3.043532 -0.076700 0.000000 -0.000002 -0.000006 -8.728667 10.710559 -0.000009 -0.000000 -0.000000 -0.000001 -0.000679 9.278123 0.000000 -0.000000 -0.000000 8.207792 -6.751710 -1.599556 -0.074518 -0.000003 0.000081 -0.000002 -44.370014 0.346960 0.148822 0.000002 0.000000 -0.000001 -44.423664 -3.044403 -0.074314 0.000000 -0.000002 -0.000004 -8.728671 10.710558 0.000007 -0.000000 -0.000000 0.000000 -0.000680 9.278137 -0.000000 0.000000 -0.000001 
